<svg width="234" height="66" viewBox="0 0 234 66" fill="none" xmlns="http://www.w3.org/2000/svg">
<path d="M230.641 62.16C230.182 62.16 229.697 62.112 229.185 62.016C228.673 61.92 228.214 61.7547 227.809 61.52C227.638 61.4133 227.516 61.2907 227.441 61.152C227.377 61.0027 227.35 60.8587 227.361 60.72C227.382 60.5707 227.436 60.4427 227.521 60.336C227.617 60.2293 227.734 60.16 227.873 60.128C228.022 60.096 228.182 60.1227 228.353 60.208C228.78 60.4107 229.18 60.5547 229.553 60.64C229.926 60.7147 230.294 60.752 230.657 60.752C231.169 60.752 231.548 60.6667 231.793 60.496C232.049 60.3147 232.177 60.08 232.177 59.792C232.177 59.5467 232.092 59.36 231.921 59.232C231.761 59.0933 231.516 58.992 231.185 58.928L229.585 58.624C228.924 58.496 228.417 58.256 228.065 57.904C227.724 57.5413 227.553 57.0773 227.553 56.512C227.553 56 227.692 55.5573 227.969 55.184C228.257 54.8107 228.652 54.5227 229.153 54.32C229.654 54.1173 230.23 54.016 230.881 54.016C231.35 54.016 231.788 54.0693 232.193 54.176C232.609 54.272 233.009 54.4267 233.393 54.64C233.553 54.7253 233.66 54.8373 233.713 54.976C233.777 55.1147 233.793 55.2587 233.761 55.408C233.729 55.5467 233.665 55.6747 233.569 55.792C233.473 55.8987 233.35 55.968 233.201 56C233.062 56.0213 232.902 55.9893 232.721 55.904C232.39 55.7333 232.07 55.6107 231.761 55.536C231.462 55.4613 231.174 55.424 230.897 55.424C230.374 55.424 229.985 55.5147 229.729 55.696C229.484 55.8773 229.361 56.1173 229.361 56.416C229.361 56.64 229.436 56.8267 229.585 56.976C229.734 57.1253 229.964 57.2267 230.273 57.28L231.873 57.584C232.566 57.712 233.089 57.9467 233.441 58.288C233.804 58.6293 233.985 59.088 233.985 59.664C233.985 60.4427 233.681 61.056 233.073 61.504C232.465 61.9413 231.654 62.16 230.641 62.16Z" fill="#085C2F"/>
<path d="M222.348 62.16C221.89 62.16 221.404 62.112 220.892 62.016C220.38 61.92 219.922 61.7547 219.516 61.52C219.346 61.4133 219.223 61.2907 219.148 61.152C219.084 61.0027 219.058 60.8587 219.068 60.72C219.09 60.5707 219.143 60.4427 219.228 60.336C219.324 60.2293 219.442 60.16 219.58 60.128C219.73 60.096 219.89 60.1227 220.06 60.208C220.487 60.4107 220.887 60.5547 221.26 60.64C221.634 60.7147 222.002 60.752 222.364 60.752C222.876 60.752 223.255 60.6667 223.5 60.496C223.756 60.3147 223.884 60.08 223.884 59.792C223.884 59.5467 223.799 59.36 223.628 59.232C223.468 59.0933 223.223 58.992 222.892 58.928L221.292 58.624C220.631 58.496 220.124 58.256 219.772 57.904C219.431 57.5413 219.26 57.0773 219.26 56.512C219.26 56 219.399 55.5573 219.676 55.184C219.964 54.8107 220.359 54.5227 220.86 54.32C221.362 54.1173 221.938 54.016 222.588 54.016C223.058 54.016 223.495 54.0693 223.9 54.176C224.316 54.272 224.716 54.4267 225.1 54.64C225.26 54.7253 225.367 54.8373 225.42 54.976C225.484 55.1147 225.5 55.2587 225.468 55.408C225.436 55.5467 225.372 55.6747 225.276 55.792C225.18 55.8987 225.058 55.968 224.908 56C224.77 56.0213 224.61 55.9893 224.428 55.904C224.098 55.7333 223.778 55.6107 223.468 55.536C223.17 55.4613 222.882 55.424 222.604 55.424C222.082 55.424 221.692 55.5147 221.436 55.696C221.191 55.8773 221.068 56.1173 221.068 56.416C221.068 56.64 221.143 56.8267 221.292 56.976C221.442 57.1253 221.671 57.2267 221.98 57.28L223.58 57.584C224.274 57.712 224.796 57.9467 225.148 58.288C225.511 58.6293 225.692 59.088 225.692 59.664C225.692 60.4427 225.388 61.056 224.78 61.504C224.172 61.9413 223.362 62.16 222.348 62.16Z" fill="#085C2F"/>
<path d="M214.188 62.16C213.303 62.16 212.54 61.9947 211.9 61.664C211.26 61.3333 210.764 60.864 210.412 60.256C210.071 59.648 209.9 58.928 209.9 58.096C209.9 57.2853 210.066 56.576 210.396 55.968C210.738 55.36 211.202 54.8853 211.788 54.544C212.386 54.192 213.063 54.016 213.82 54.016C214.375 54.016 214.871 54.1067 215.308 54.288C215.756 54.4693 216.135 54.7307 216.444 55.072C216.764 55.4133 217.004 55.8293 217.164 56.32C217.335 56.8 217.42 57.344 217.42 57.952C217.42 58.144 217.351 58.2933 217.212 58.4C217.084 58.496 216.898 58.544 216.652 58.544H211.516V57.392H216.012L215.756 57.632C215.756 57.1413 215.682 56.7307 215.532 56.4C215.394 56.0693 215.186 55.8187 214.908 55.648C214.642 55.4667 214.306 55.376 213.9 55.376C213.452 55.376 213.068 55.4827 212.748 55.696C212.439 55.8987 212.199 56.192 212.028 56.576C211.868 56.9493 211.788 57.3973 211.788 57.92V58.032C211.788 58.9067 211.991 59.5627 212.396 60C212.812 60.4267 213.42 60.64 214.22 60.64C214.498 60.64 214.807 60.608 215.148 60.544C215.5 60.4693 215.831 60.3467 216.14 60.176C216.364 60.048 216.562 59.9947 216.732 60.016C216.903 60.0267 217.036 60.0853 217.132 60.192C217.239 60.2987 217.303 60.432 217.324 60.592C217.346 60.7413 217.314 60.896 217.228 61.056C217.154 61.216 217.02 61.3547 216.828 61.472C216.455 61.7067 216.023 61.8827 215.532 62C215.052 62.1067 214.604 62.16 214.188 62.16Z" fill="#085C2F"/>
<path d="M204.736 62.128C204.405 62.128 204.149 62.0427 203.968 61.872C203.797 61.6907 203.712 61.4347 203.712 61.104V55.056C203.712 54.7253 203.797 54.4747 203.968 54.304C204.139 54.1333 204.379 54.048 204.688 54.048C204.997 54.048 205.237 54.1333 205.408 54.304C205.579 54.4747 205.664 54.7253 205.664 55.056V56.064H205.504C205.653 55.424 205.947 54.9387 206.384 54.608C206.821 54.2773 207.403 54.08 208.128 54.016C208.352 53.9947 208.528 54.0533 208.656 54.192C208.795 54.32 208.875 54.5227 208.896 54.8C208.917 55.0667 208.853 55.2853 208.704 55.456C208.565 55.616 208.352 55.712 208.064 55.744L207.712 55.776C207.061 55.84 206.571 56.0427 206.24 56.384C205.909 56.7147 205.744 57.184 205.744 57.792V61.104C205.744 61.4347 205.659 61.6907 205.488 61.872C205.317 62.0427 205.067 62.128 204.736 62.128Z" fill="#085C2F"/>
<path d="M197.224 65.04C196.648 65.04 196.088 64.9867 195.544 64.88C195.01 64.7733 194.525 64.608 194.088 64.384C193.885 64.2773 193.746 64.1493 193.672 64C193.608 63.8507 193.586 63.696 193.608 63.536C193.64 63.3867 193.704 63.2533 193.8 63.136C193.906 63.0187 194.034 62.9387 194.184 62.896C194.333 62.8533 194.488 62.8747 194.648 62.96C195.117 63.1947 195.56 63.344 195.976 63.408C196.402 63.4827 196.765 63.52 197.064 63.52C197.778 63.52 198.312 63.344 198.664 62.992C199.026 62.6507 199.208 62.1387 199.208 61.456V60.016H199.352C199.192 60.56 198.856 60.9973 198.344 61.328C197.842 61.648 197.272 61.808 196.632 61.808C195.928 61.808 195.314 61.648 194.792 61.328C194.269 60.9973 193.864 60.5387 193.576 59.952C193.288 59.3653 193.144 58.6827 193.144 57.904C193.144 57.3173 193.224 56.7893 193.384 56.32C193.554 55.84 193.789 55.4293 194.088 55.088C194.397 54.7467 194.765 54.4853 195.192 54.304C195.629 54.112 196.109 54.016 196.632 54.016C197.293 54.016 197.869 54.1813 198.36 54.512C198.861 54.832 199.186 55.2587 199.336 55.792L199.176 56.192V55.056C199.176 54.7253 199.261 54.4747 199.432 54.304C199.613 54.1333 199.858 54.048 200.168 54.048C200.488 54.048 200.733 54.1333 200.904 54.304C201.074 54.4747 201.16 54.7253 201.16 55.056V61.216C201.16 62.4853 200.824 63.44 200.152 64.08C199.48 64.72 198.504 65.04 197.224 65.04ZM197.176 60.288C197.592 60.288 197.949 60.192 198.248 60C198.546 59.808 198.776 59.536 198.936 59.184C199.106 58.8213 199.192 58.3947 199.192 57.904C199.192 57.168 199.01 56.592 198.648 56.176C198.285 55.7493 197.794 55.536 197.176 55.536C196.76 55.536 196.402 55.632 196.104 55.824C195.805 56.016 195.57 56.288 195.4 56.64C195.24 56.992 195.16 57.4133 195.16 57.904C195.16 58.64 195.341 59.2213 195.704 59.648C196.066 60.0747 196.557 60.288 197.176 60.288Z" fill="#085C2F"/>
<path d="M187.445 62.16C186.634 62.16 185.93 61.9947 185.333 61.664C184.735 61.3333 184.271 60.864 183.941 60.256C183.61 59.6373 183.445 58.912 183.445 58.08C183.445 57.4507 183.535 56.8907 183.717 56.4C183.909 55.8987 184.181 55.472 184.533 55.12C184.885 54.7573 185.306 54.4853 185.797 54.304C186.287 54.112 186.837 54.016 187.445 54.016C188.255 54.016 188.959 54.1813 189.557 54.512C190.154 54.8427 190.618 55.312 190.949 55.92C191.279 56.528 191.445 57.248 191.445 58.08C191.445 58.7093 191.349 59.2747 191.157 59.776C190.975 60.2773 190.709 60.7093 190.357 61.072C190.005 61.424 189.583 61.696 189.093 61.888C188.602 62.0693 188.053 62.16 187.445 62.16ZM187.445 60.64C187.839 60.64 188.186 60.544 188.485 60.352C188.783 60.16 189.013 59.8773 189.173 59.504C189.343 59.12 189.429 58.6453 189.429 58.08C189.429 57.2267 189.247 56.592 188.885 56.176C188.522 55.7493 188.042 55.536 187.445 55.536C187.05 55.536 186.703 55.632 186.405 55.824C186.106 56.0053 185.871 56.288 185.701 56.672C185.541 57.0453 185.461 57.5147 185.461 58.08C185.461 58.9227 185.642 59.5627 186.005 60C186.367 60.4267 186.847 60.64 187.445 60.64Z" fill="#085C2F"/>
<path d="M178.28 62.128C177.95 62.128 177.694 62.0427 177.512 61.872C177.342 61.6907 177.256 61.4347 177.256 61.104V55.056C177.256 54.7253 177.342 54.4747 177.512 54.304C177.683 54.1333 177.923 54.048 178.232 54.048C178.542 54.048 178.782 54.1333 178.952 54.304C179.123 54.4747 179.208 54.7253 179.208 55.056V56.064H179.048C179.198 55.424 179.491 54.9387 179.928 54.608C180.366 54.2773 180.947 54.08 181.672 54.016C181.896 53.9947 182.072 54.0533 182.2 54.192C182.339 54.32 182.419 54.5227 182.44 54.8C182.462 55.0667 182.398 55.2853 182.248 55.456C182.11 55.616 181.896 55.712 181.608 55.744L181.256 55.776C180.606 55.84 180.115 56.0427 179.784 56.384C179.454 56.7147 179.288 57.184 179.288 57.792V61.104C179.288 61.4347 179.203 61.6907 179.032 61.872C178.862 62.0427 178.611 62.128 178.28 62.128Z" fill="#085C2F"/>
<path d="M167.711 62.128C167.38 62.128 167.124 62.0373 166.943 61.856C166.772 61.664 166.687 61.4027 166.687 61.072V51.76C166.687 51.4187 166.778 51.1627 166.959 50.992C167.14 50.8107 167.396 50.72 167.727 50.72H171.583C172.82 50.72 173.775 51.0293 174.447 51.648C175.119 52.2667 175.455 53.1307 175.455 54.24C175.455 55.3493 175.119 56.2187 174.447 56.848C173.775 57.4667 172.82 57.776 171.583 57.776H168.735V61.072C168.735 61.4027 168.65 61.664 168.479 61.856C168.308 62.0373 168.052 62.128 167.711 62.128ZM168.735 56.16H171.263C171.988 56.16 172.538 56 172.911 55.68C173.284 55.3493 173.471 54.8693 173.471 54.24C173.471 53.6107 173.284 53.136 172.911 52.816C172.538 52.496 171.988 52.336 171.263 52.336H168.735V56.16Z" fill="#085C2F"/>
<path d="M154.753 65.008C154.519 65.008 154.327 64.944 154.177 64.816C154.028 64.6987 153.937 64.5387 153.905 64.336C153.884 64.1333 153.921 63.92 154.017 63.696L155.105 61.28V62.112L152.193 55.376C152.097 55.1413 152.065 54.9227 152.097 54.72C152.129 54.5173 152.225 54.3573 152.385 54.24C152.556 54.112 152.785 54.048 153.073 54.048C153.319 54.048 153.516 54.1067 153.665 54.224C153.815 54.3307 153.948 54.5387 154.065 54.848L156.225 60.24H155.745L157.953 54.832C158.071 54.5333 158.209 54.3307 158.369 54.224C158.529 54.1067 158.743 54.048 159.009 54.048C159.244 54.048 159.431 54.112 159.569 54.24C159.708 54.3573 159.793 54.5173 159.825 54.72C159.857 54.912 159.82 55.1253 159.713 55.36L155.825 64.24C155.687 64.5387 155.537 64.7413 155.377 64.848C155.217 64.9547 155.009 65.008 154.753 65.008Z" fill="#085C2F"/>
<path d="M150.055 62.16C149.17 62.16 148.503 61.9093 148.055 61.408C147.607 60.896 147.383 60.1493 147.383 59.168V51.6C147.383 51.2693 147.468 51.0187 147.639 50.848C147.81 50.6773 148.055 50.592 148.375 50.592C148.695 50.592 148.94 50.6773 149.111 50.848C149.292 51.0187 149.383 51.2693 149.383 51.6V59.072C149.383 59.5627 149.484 59.9253 149.687 60.16C149.9 60.3947 150.199 60.512 150.583 60.512C150.668 60.512 150.748 60.512 150.823 60.512C150.898 60.5013 150.972 60.4907 151.047 60.48C151.196 60.4587 151.298 60.5013 151.351 60.608C151.404 60.704 151.431 60.9067 151.431 61.216C151.431 61.4827 151.378 61.6907 151.271 61.84C151.164 61.9893 150.988 62.08 150.743 62.112C150.636 62.1227 150.524 62.1333 150.407 62.144C150.29 62.1547 150.172 62.16 150.055 62.16Z" fill="#085C2F"/>
<path d="M143.817 62.112C143.497 62.112 143.252 62.016 143.081 61.824C142.91 61.632 142.825 61.3653 142.825 61.024V55.152C142.825 54.8 142.91 54.5333 143.081 54.352C143.252 54.16 143.497 54.064 143.817 54.064C144.137 54.064 144.382 54.16 144.553 54.352C144.734 54.5333 144.825 54.8 144.825 55.152V61.024C144.825 61.3653 144.74 61.632 144.569 61.824C144.398 62.016 144.148 62.112 143.817 62.112ZM143.817 52.576C143.444 52.576 143.15 52.4853 142.937 52.304C142.734 52.112 142.633 51.8507 142.633 51.52C142.633 51.1787 142.734 50.9173 142.937 50.736C143.15 50.5547 143.444 50.464 143.817 50.464C144.201 50.464 144.494 50.5547 144.697 50.736C144.9 50.9173 145.001 51.1787 145.001 51.52C145.001 51.8507 144.9 52.112 144.697 52.304C144.494 52.4853 144.201 52.576 143.817 52.576Z" fill="#085C2F"/>
<path d="M136.171 62.16C135.606 62.16 135.099 62.0533 134.651 61.84C134.214 61.616 133.867 61.3173 133.611 60.944C133.366 60.5707 133.243 60.1493 133.243 59.68C133.243 59.104 133.392 58.6507 133.691 58.32C133.99 57.9787 134.475 57.7333 135.147 57.584C135.819 57.4347 136.72 57.36 137.851 57.36H138.651V58.512H137.867C137.206 58.512 136.678 58.544 136.283 58.608C135.888 58.672 135.606 58.784 135.435 58.944C135.275 59.0933 135.195 59.3067 135.195 59.584C135.195 59.936 135.318 60.224 135.563 60.448C135.808 60.672 136.15 60.784 136.587 60.784C136.939 60.784 137.248 60.704 137.515 60.544C137.792 60.3733 138.011 60.144 138.171 59.856C138.331 59.568 138.411 59.2373 138.411 58.864V57.024C138.411 56.4907 138.294 56.1067 138.059 55.872C137.824 55.6373 137.43 55.52 136.875 55.52C136.566 55.52 136.23 55.5573 135.867 55.632C135.515 55.7067 135.142 55.8347 134.747 56.016C134.544 56.112 134.363 56.1387 134.203 56.096C134.054 56.0533 133.936 55.968 133.851 55.84C133.766 55.7013 133.723 55.552 133.723 55.392C133.723 55.232 133.766 55.0773 133.851 54.928C133.936 54.768 134.08 54.6507 134.283 54.576C134.774 54.3733 135.243 54.2293 135.691 54.144C136.15 54.0587 136.566 54.016 136.939 54.016C137.707 54.016 138.336 54.1333 138.827 54.368C139.328 54.6027 139.702 54.96 139.947 55.44C140.192 55.9093 140.315 56.5173 140.315 57.264V61.104C140.315 61.4347 140.235 61.6907 140.075 61.872C139.915 62.0427 139.686 62.128 139.387 62.128C139.088 62.128 138.854 62.0427 138.683 61.872C138.523 61.6907 138.443 61.4347 138.443 61.104V60.336H138.571C138.496 60.7093 138.347 61.0347 138.123 61.312C137.91 61.5787 137.638 61.7867 137.307 61.936C136.976 62.0853 136.598 62.16 136.171 62.16Z" fill="#085C2F"/>
<path d="M122.207 62C121.855 62 121.583 61.9093 121.391 61.728C121.21 61.536 121.119 61.264 121.119 60.912V51.808C121.119 51.456 121.21 51.1893 121.391 51.008C121.583 50.816 121.855 50.72 122.207 50.72H125.311C127.199 50.72 128.655 51.2053 129.679 52.176C130.714 53.1467 131.231 54.5387 131.231 56.352C131.231 57.2587 131.098 58.064 130.831 58.768C130.575 59.4613 130.191 60.048 129.679 60.528C129.178 61.008 128.559 61.376 127.823 61.632C127.098 61.8773 126.261 62 125.311 62H122.207ZM123.167 60.304H125.183C125.845 60.304 126.415 60.224 126.895 60.064C127.386 59.8933 127.791 59.648 128.111 59.328C128.442 58.9973 128.687 58.5867 128.847 58.096C129.007 57.5947 129.087 57.0133 129.087 56.352C129.087 55.0293 128.762 54.0427 128.111 53.392C127.461 52.7413 126.485 52.416 125.183 52.416H123.167V60.304Z" fill="#085C2F"/>
<path d="M110.382 62.128C110.051 62.128 109.795 62.0427 109.614 61.872C109.443 61.6907 109.358 61.4347 109.358 61.104V55.056C109.358 54.7253 109.443 54.4747 109.614 54.304C109.785 54.1333 110.025 54.048 110.334 54.048C110.643 54.048 110.883 54.1333 111.054 54.304C111.225 54.4747 111.31 54.7253 111.31 55.056V56.064H111.15C111.299 55.424 111.593 54.9387 112.03 54.608C112.467 54.2773 113.049 54.08 113.774 54.016C113.998 53.9947 114.174 54.0533 114.302 54.192C114.441 54.32 114.521 54.5227 114.542 54.8C114.563 55.0667 114.499 55.2853 114.35 55.456C114.211 55.616 113.998 55.712 113.71 55.744L113.358 55.776C112.707 55.84 112.217 56.0427 111.886 56.384C111.555 56.7147 111.39 57.184 111.39 57.792V61.104C111.39 61.4347 111.305 61.6907 111.134 61.872C110.963 62.0427 110.713 62.128 110.382 62.128Z" fill="#085C2F"/>
<path d="M103.227 62.16C102.417 62.16 101.713 61.9947 101.115 61.664C100.518 61.3333 100.054 60.864 99.7233 60.256C99.3926 59.6373 99.2273 58.912 99.2273 58.08C99.2273 57.4507 99.318 56.8907 99.4993 56.4C99.6913 55.8987 99.9633 55.472 100.315 55.12C100.667 54.7573 101.089 54.4853 101.579 54.304C102.07 54.112 102.619 54.016 103.227 54.016C104.038 54.016 104.742 54.1813 105.339 54.512C105.937 54.8427 106.401 55.312 106.731 55.92C107.062 56.528 107.227 57.248 107.227 58.08C107.227 58.7093 107.131 59.2747 106.939 59.776C106.758 60.2773 106.491 60.7093 106.139 61.072C105.787 61.424 105.366 61.696 104.875 61.888C104.385 62.0693 103.835 62.16 103.227 62.16ZM103.227 60.64C103.622 60.64 103.969 60.544 104.267 60.352C104.566 60.16 104.795 59.8773 104.955 59.504C105.126 59.12 105.211 58.6453 105.211 58.08C105.211 57.2267 105.03 56.592 104.667 56.176C104.305 55.7493 103.825 55.536 103.227 55.536C102.833 55.536 102.486 55.632 102.187 55.824C101.889 56.0053 101.654 56.288 101.483 56.672C101.323 57.0453 101.243 57.5147 101.243 58.08C101.243 58.9227 101.425 59.5627 101.787 60C102.15 60.4267 102.63 60.64 103.227 60.64Z" fill="#085C2F"/>
<path d="M95.0904 62.128C94.7704 62.128 94.5197 62.0427 94.3384 61.872C94.1677 61.6907 94.0824 61.4347 94.0824 61.104V55.68H93.3464C93.0904 55.68 92.8931 55.616 92.7544 55.488C92.6157 55.3493 92.5464 55.1627 92.5464 54.928C92.5464 54.6827 92.6157 54.496 92.7544 54.368C92.8931 54.24 93.0904 54.176 93.3464 54.176H94.6584L94.0824 54.704V54.16C94.0824 53.0613 94.3597 52.24 94.9144 51.696C95.4691 51.1413 96.2691 50.816 97.3144 50.72L97.8584 50.672C98.0717 50.6507 98.2424 50.688 98.3704 50.784C98.4984 50.8693 98.5837 50.9867 98.6264 51.136C98.6691 51.2747 98.6744 51.4187 98.6424 51.568C98.6104 51.7173 98.5411 51.8507 98.4344 51.968C98.3384 52.0747 98.2104 52.1333 98.0504 52.144L97.8264 52.16C97.2184 52.2027 96.7757 52.3573 96.4984 52.624C96.2211 52.8907 96.0824 53.296 96.0824 53.84V54.432L95.8264 54.176H97.4424C97.6984 54.176 97.8957 54.24 98.0344 54.368C98.1731 54.496 98.2424 54.6827 98.2424 54.928C98.2424 55.1627 98.1731 55.3493 98.0344 55.488C97.8957 55.616 97.6984 55.68 97.4424 55.68H96.0824V61.104C96.0824 61.7867 95.7517 62.128 95.0904 62.128Z" fill="#085C2F"/>
<path d="M79.8834 62.128C79.5634 62.128 79.318 62.0427 79.1474 61.872C78.9767 61.6907 78.8914 61.4347 78.8914 61.104V55.056C78.8914 54.7253 78.9767 54.4747 79.1474 54.304C79.318 54.1333 79.558 54.048 79.8674 54.048C80.1767 54.048 80.4167 54.1333 80.5874 54.304C80.758 54.4747 80.8434 54.7253 80.8434 55.056V56.144L80.6674 55.744C80.902 55.1787 81.2647 54.752 81.7554 54.464C82.2567 54.1653 82.822 54.016 83.4514 54.016C84.0807 54.016 84.598 54.1333 85.0034 54.368C85.4087 54.6027 85.7127 54.96 85.9154 55.44C86.118 55.9093 86.2194 56.5067 86.2194 57.232V61.104C86.2194 61.4347 86.134 61.6907 85.9634 61.872C85.7927 62.0427 85.5474 62.128 85.2274 62.128C84.9074 62.128 84.6567 62.0427 84.4754 61.872C84.3047 61.6907 84.2194 61.4347 84.2194 61.104V57.328C84.2194 56.72 84.102 56.2773 83.8674 56C83.6434 55.7227 83.2914 55.584 82.8114 55.584C82.2247 55.584 81.7554 55.7707 81.4034 56.144C81.062 56.5067 80.8914 56.992 80.8914 57.6V61.104C80.8914 61.7867 80.5554 62.128 79.8834 62.128Z" fill="#085C2F"/>
<path d="M72.7605 62.16C71.9498 62.16 71.2458 61.9947 70.6485 61.664C70.0512 61.3333 69.5872 60.864 69.2565 60.256C68.9258 59.6373 68.7605 58.912 68.7605 58.08C68.7605 57.4507 68.8512 56.8907 69.0325 56.4C69.2245 55.8987 69.4965 55.472 69.8485 55.12C70.2005 54.7573 70.6218 54.4853 71.1125 54.304C71.6032 54.112 72.1525 54.016 72.7605 54.016C73.5712 54.016 74.2752 54.1813 74.8725 54.512C75.4698 54.8427 75.9338 55.312 76.2645 55.92C76.5952 56.528 76.7605 57.248 76.7605 58.08C76.7605 58.7093 76.6645 59.2747 76.4725 59.776C76.2912 60.2773 76.0245 60.7093 75.6725 61.072C75.3205 61.424 74.8992 61.696 74.4085 61.888C73.9178 62.0693 73.3685 62.16 72.7605 62.16ZM72.7605 60.64C73.1552 60.64 73.5018 60.544 73.8005 60.352C74.0992 60.16 74.3285 59.8773 74.4885 59.504C74.6592 59.12 74.7445 58.6453 74.7445 58.08C74.7445 57.2267 74.5632 56.592 74.2005 56.176C73.8378 55.7493 73.3578 55.536 72.7605 55.536C72.3658 55.536 72.0192 55.632 71.7205 55.824C71.4218 56.0053 71.1872 56.288 71.0165 56.672C70.8565 57.0453 70.7765 57.5147 70.7765 58.08C70.7765 58.9227 70.9578 59.5627 71.3205 60C71.6832 60.4267 72.1632 60.64 72.7605 60.64Z" fill="#085C2F"/>
<path d="M65.6264 62.112C65.3064 62.112 65.061 62.016 64.8904 61.824C64.7197 61.632 64.6344 61.3653 64.6344 61.024V55.152C64.6344 54.8 64.7197 54.5333 64.8904 54.352C65.061 54.16 65.3064 54.064 65.6264 54.064C65.9464 54.064 66.1917 54.16 66.3624 54.352C66.5437 54.5333 66.6344 54.8 66.6344 55.152V61.024C66.6344 61.3653 66.549 61.632 66.3784 61.824C66.2077 62.016 65.957 62.112 65.6264 62.112ZM65.6264 52.576C65.253 52.576 64.9597 52.4853 64.7464 52.304C64.5437 52.112 64.4424 51.8507 64.4424 51.52C64.4424 51.1787 64.5437 50.9173 64.7464 50.736C64.9597 50.5547 65.253 50.464 65.6264 50.464C66.0104 50.464 66.3037 50.5547 66.5064 50.736C66.7091 50.9173 66.8104 51.1787 66.8104 51.52C66.8104 51.8507 66.7091 52.112 66.5064 52.304C66.3037 52.4853 66.0104 52.576 65.6264 52.576Z" fill="#085C2F"/>
<path d="M61.3947 62.16C60.7014 62.16 60.12 62.0427 59.6507 61.808C59.192 61.5733 58.8507 61.232 58.6267 60.784C58.4027 60.3253 58.2907 59.76 58.2907 59.088V55.68H57.4587C57.2027 55.68 57.0054 55.616 56.8667 55.488C56.728 55.3493 56.6587 55.1627 56.6587 54.928C56.6587 54.6827 56.728 54.496 56.8667 54.368C57.0054 54.24 57.2027 54.176 57.4587 54.176H58.2907V52.72C58.2907 52.3893 58.376 52.1387 58.5467 51.968C58.728 51.7973 58.9787 51.712 59.2987 51.712C59.6187 51.712 59.864 51.7973 60.0347 51.968C60.2054 52.1387 60.2907 52.3893 60.2907 52.72V54.176H61.9867C62.2427 54.176 62.44 54.24 62.5787 54.368C62.7174 54.496 62.7867 54.6827 62.7867 54.928C62.7867 55.1627 62.7174 55.3493 62.5787 55.488C62.44 55.616 62.2427 55.68 61.9867 55.68H60.2907V58.976C60.2907 59.488 60.4027 59.872 60.6267 60.128C60.8507 60.384 61.2134 60.512 61.7147 60.512C61.896 60.512 62.056 60.496 62.1947 60.464C62.3334 60.432 62.456 60.4107 62.5627 60.4C62.6907 60.3893 62.7974 60.432 62.8827 60.528C62.968 60.6133 63.0107 60.7947 63.0107 61.072C63.0107 61.2853 62.9734 61.4773 62.8987 61.648C62.8347 61.808 62.712 61.92 62.5307 61.984C62.392 62.0267 62.2107 62.064 61.9867 62.096C61.7627 62.1387 61.5654 62.16 61.3947 62.16Z" fill="#085C2F"/>
<path d="M51.1565 62.16C50.5912 62.16 50.0845 62.0533 49.6365 61.84C49.1992 61.616 48.8525 61.3173 48.5965 60.944C48.3512 60.5707 48.2285 60.1493 48.2285 59.68C48.2285 59.104 48.3779 58.6507 48.6765 58.32C48.9752 57.9787 49.4605 57.7333 50.1325 57.584C50.8045 57.4347 51.7059 57.36 52.8365 57.36H53.6365V58.512H52.8525C52.1912 58.512 51.6632 58.544 51.2685 58.608C50.8738 58.672 50.5912 58.784 50.4205 58.944C50.2605 59.0933 50.1805 59.3067 50.1805 59.584C50.1805 59.936 50.3032 60.224 50.5485 60.448C50.7938 60.672 51.1352 60.784 51.5725 60.784C51.9245 60.784 52.2338 60.704 52.5005 60.544C52.7778 60.3733 52.9965 60.144 53.1565 59.856C53.3165 59.568 53.3965 59.2373 53.3965 58.864V57.024C53.3965 56.4907 53.2792 56.1067 53.0445 55.872C52.8099 55.6373 52.4152 55.52 51.8605 55.52C51.5512 55.52 51.2152 55.5573 50.8525 55.632C50.5005 55.7067 50.1272 55.8347 49.7325 56.016C49.5299 56.112 49.3485 56.1387 49.1885 56.096C49.0392 56.0533 48.9219 55.968 48.8365 55.84C48.7512 55.7013 48.7085 55.552 48.7085 55.392C48.7085 55.232 48.7512 55.0773 48.8365 54.928C48.9219 54.768 49.0658 54.6507 49.2685 54.576C49.7592 54.3733 50.2285 54.2293 50.6765 54.144C51.1352 54.0587 51.5512 54.016 51.9245 54.016C52.6925 54.016 53.3218 54.1333 53.8125 54.368C54.3138 54.6027 54.6872 54.96 54.9325 55.44C55.1778 55.9093 55.3005 56.5173 55.3005 57.264V61.104C55.3005 61.4347 55.2205 61.6907 55.0605 61.872C54.9005 62.0427 54.6712 62.128 54.3725 62.128C54.0739 62.128 53.8392 62.0427 53.6685 61.872C53.5085 61.6907 53.4285 61.4347 53.4285 61.104V60.336H53.5565C53.4818 60.7093 53.3325 61.0347 53.1085 61.312C52.8952 61.5787 52.6232 61.7867 52.2925 61.936C51.9618 62.0853 51.5832 62.16 51.1565 62.16Z" fill="#085C2F"/>
<path d="M41.5149 62.16C40.8323 62.16 40.2296 61.9947 39.707 61.664C39.195 61.3333 38.795 60.864 38.507 60.256C38.219 59.6373 38.075 58.912 38.075 58.08C38.075 57.2373 38.219 56.5173 38.507 55.92C38.795 55.312 39.195 54.8427 39.707 54.512C40.2296 54.1813 40.8323 54.016 41.5149 54.016C42.1656 54.016 42.7309 54.176 43.2109 54.496C43.7016 54.816 44.0323 55.2373 44.2029 55.76H44.027V51.6C44.027 51.2693 44.1123 51.0187 44.283 50.848C44.4536 50.6773 44.699 50.592 45.019 50.592C45.339 50.592 45.5843 50.6773 45.755 50.848C45.9363 51.0187 46.027 51.2693 46.027 51.6V61.104C46.027 61.4347 45.9416 61.6907 45.771 61.872C45.6003 62.0427 45.355 62.128 45.035 62.128C44.715 62.128 44.4696 62.0427 44.299 61.872C44.1283 61.6907 44.0429 61.4347 44.0429 61.104V59.856L44.2189 60.336C44.0589 60.8907 43.7336 61.3333 43.243 61.664C42.7523 61.9947 42.1763 62.16 41.5149 62.16ZM42.075 60.64C42.4696 60.64 42.8163 60.544 43.1149 60.352C43.4136 60.16 43.6429 59.8773 43.8029 59.504C43.9736 59.12 44.0589 58.6453 44.0589 58.08C44.0589 57.2267 43.8776 56.592 43.5149 56.176C43.1523 55.7493 42.6723 55.536 42.075 55.536C41.6803 55.536 41.3336 55.632 41.035 55.824C40.7363 56.0053 40.5016 56.288 40.3309 56.672C40.1709 57.0453 40.091 57.5147 40.091 58.08C40.091 58.9227 40.2723 59.5627 40.6349 60C40.9976 60.4267 41.4776 60.64 42.075 60.64Z" fill="#085C2F"/>
<path d="M29.6595 62.128C29.3395 62.128 29.0941 62.0427 28.9235 61.872C28.7528 61.6907 28.6675 61.4347 28.6675 61.104V55.056C28.6675 54.7253 28.7528 54.4747 28.9235 54.304C29.0941 54.1333 29.3341 54.048 29.6435 54.048C29.9528 54.048 30.1928 54.1333 30.3635 54.304C30.5341 54.4747 30.6195 54.7253 30.6195 55.056V56.144L30.4435 55.744C30.6781 55.1787 31.0408 54.752 31.5315 54.464C32.0328 54.1653 32.5981 54.016 33.2275 54.016C33.8568 54.016 34.3741 54.1333 34.7795 54.368C35.1848 54.6027 35.4888 54.96 35.6915 55.44C35.8941 55.9093 35.9955 56.5067 35.9955 57.232V61.104C35.9955 61.4347 35.9101 61.6907 35.7395 61.872C35.5688 62.0427 35.3235 62.128 35.0035 62.128C34.6835 62.128 34.4328 62.0427 34.2515 61.872C34.0808 61.6907 33.9955 61.4347 33.9955 61.104V57.328C33.9955 56.72 33.8781 56.2773 33.6435 56C33.4195 55.7227 33.0675 55.584 32.5875 55.584C32.0008 55.584 31.5315 55.7707 31.1795 56.144C30.8381 56.5067 30.6675 56.992 30.6675 57.6V61.104C30.6675 61.7867 30.3315 62.128 29.6595 62.128Z" fill="#085C2F"/>
<path d="M21.7538 62.16C21.1031 62.16 20.5644 62.0427 20.1378 61.808C19.7111 61.5627 19.3911 61.2 19.1778 60.72C18.9751 60.24 18.8738 59.6427 18.8738 58.928V55.056C18.8738 54.7147 18.9591 54.464 19.1298 54.304C19.3004 54.1333 19.5458 54.048 19.8658 54.048C20.1858 54.048 20.4311 54.1333 20.6018 54.304C20.7831 54.464 20.8738 54.7147 20.8738 55.056V58.96C20.8738 59.5147 20.9858 59.9253 21.2098 60.192C21.4338 60.4587 21.7911 60.592 22.2818 60.592C22.8151 60.592 23.2524 60.4107 23.5938 60.048C23.9351 59.6747 24.1058 59.184 24.1058 58.576V55.056C24.1058 54.7147 24.1911 54.464 24.3618 54.304C24.5324 54.1333 24.7778 54.048 25.0978 54.048C25.4178 54.048 25.6631 54.1333 25.8338 54.304C26.0151 54.464 26.1058 54.7147 26.1058 55.056V61.104C26.1058 61.7867 25.7804 62.128 25.1298 62.128C24.8204 62.128 24.5804 62.0427 24.4098 61.872C24.2391 61.6907 24.1538 61.4347 24.1538 61.104V59.888L24.3778 60.368C24.1538 60.944 23.8124 61.3867 23.3538 61.696C22.9058 62.0053 22.3724 62.16 21.7538 62.16Z" fill="#085C2F"/>
<path d="M12.791 62.16C11.9803 62.16 11.2763 61.9947 10.679 61.664C10.0817 61.3333 9.61768 60.864 9.28702 60.256C8.95635 59.6373 8.79102 58.912 8.79102 58.08C8.79102 57.4507 8.88168 56.8907 9.06302 56.4C9.25502 55.8987 9.52702 55.472 9.87902 55.12C10.231 54.7573 10.6523 54.4853 11.143 54.304C11.6337 54.112 12.183 54.016 12.791 54.016C13.6017 54.016 14.3057 54.1813 14.903 54.512C15.5003 54.8427 15.9643 55.312 16.295 55.92C16.6257 56.528 16.791 57.248 16.791 58.08C16.791 58.7093 16.695 59.2747 16.503 59.776C16.3217 60.2773 16.055 60.7093 15.703 61.072C15.351 61.424 14.9297 61.696 14.439 61.888C13.9483 62.0693 13.399 62.16 12.791 62.16ZM12.791 60.64C13.1857 60.64 13.5323 60.544 13.831 60.352C14.1297 60.16 14.359 59.8773 14.519 59.504C14.6897 59.12 14.775 58.6453 14.775 58.08C14.775 57.2267 14.5937 56.592 14.231 56.176C13.8683 55.7493 13.3883 55.536 12.791 55.536C12.3963 55.536 12.0497 55.632 11.751 55.824C11.4523 56.0053 11.2177 56.288 11.047 56.672C10.887 57.0453 10.807 57.5147 10.807 58.08C10.807 58.9227 10.9883 59.5627 11.351 60C11.7137 60.4267 12.1937 60.64 12.791 60.64Z" fill="#085C2F"/>
<path d="M1.28793 62.128C0.957267 62.128 0.695934 62.0373 0.503934 61.856C0.3226 61.664 0.231934 61.392 0.231934 61.04V51.808C0.231934 51.456 0.3226 51.1893 0.503934 51.008C0.695934 50.816 0.967934 50.72 1.31993 50.72H6.90393C7.18127 50.72 7.38927 50.7893 7.52793 50.928C7.6666 51.0667 7.73593 51.264 7.73593 51.52C7.73593 51.7867 7.6666 51.9947 7.52793 52.144C7.38927 52.2827 7.18127 52.352 6.90393 52.352H2.27993V55.536H6.56793C6.8346 55.536 7.03727 55.6053 7.17593 55.744C7.32527 55.8827 7.39993 56.08 7.39993 56.336C7.39993 56.6027 7.32527 56.8107 7.17593 56.96C7.03727 57.0987 6.8346 57.168 6.56793 57.168H2.27993V61.04C2.27993 61.7653 1.94927 62.128 1.28793 62.128Z" fill="#085C2F"/>
<path d="M25.888 6.5328C26.1178 5.97618 26.2448 5.36797 26.2448 4.72718C26.2448 2.11515 24.1389 0 21.5382 0C19.8458 0 18.3644 0.90145 17.5371 2.24819C20.838 2.61475 23.7658 4.19772 25.888 6.5328Z" fill="#085C2F"/>
<path d="M9.46736 33.3509V27.1385C6.23948 25.284 3.86047 22.1181 3.05485 18.3603C1.27059 19.0418 0.00268555 20.7687 0.00268555 22.7996V43.7991H0.0513471C0.956993 38.7759 4.64987 34.7384 9.47007 33.3509H9.46736Z" fill="#F9A61A"/>
<path d="M4.73376 6.07936C2.13306 6.07936 0.0270996 8.19451 0.0270996 10.8065C0.0270996 12.7126 1.15443 14.3499 2.77107 15.0993C2.87921 11.727 4.22551 8.6751 6.37473 6.38075C5.86379 6.18797 5.31229 6.07936 4.73376 6.07936Z" fill="#F9A61A"/>
<path d="M9.46746 27.1385V22.7996C9.46746 20.174 7.34798 18.0453 4.73377 18.0453C4.14172 18.0453 3.57671 18.1593 3.05225 18.3603C3.85787 22.1208 6.23958 25.284 9.46476 27.1385H9.46746Z" fill="#FFCB78"/>
<path d="M9.44033 10.8065C9.44033 8.77557 8.16432 7.05141 6.37466 6.38075C4.22544 8.67511 2.87913 11.727 2.771 15.0993C3.36845 15.3762 4.03349 15.5337 4.73368 15.5337C7.33167 15.5337 9.44033 13.4186 9.44033 10.8065Z" fill="#FFCB78"/>
<path d="M21.5381 11.9849C18.9239 11.9849 16.8044 14.1137 16.8044 16.7393V28.8681C20.6027 28.6563 23.9766 26.8616 26.2691 24.1111V16.742C26.2691 14.1164 24.1496 11.9877 21.5354 11.9877L21.5381 11.9849Z" fill="#0B8040"/>
<path d="M21.5382 9.45436C23.5009 9.45436 25.1797 8.2488 25.888 6.53279C23.7658 4.19499 20.838 2.61202 17.5371 2.24818C17.0938 2.97043 16.8315 3.81758 16.8315 4.72717C16.8315 7.33649 18.9375 9.45436 21.5382 9.45436Z" fill="#0B8040"/>
<path d="M9.4673 33.3509C4.6471 34.7384 0.95423 38.7759 0.048584 43.7991H9.4673V33.3509Z" fill="#085C2F"/>
<path d="M16.8044 33.3509V43.7991H26.2232C25.3175 38.7759 21.6246 34.7384 16.8044 33.3509Z" fill="#164727"/>
<path d="M16.8044 28.8681V33.3509C21.6219 34.7384 25.3175 38.7759 26.2232 43.7991H26.2691V24.1084C23.9766 26.8589 20.6027 28.6536 16.8044 28.8654V28.8681Z" fill="#085C2F"/>
<path d="M69.3914 1.61556C70.2186 2.48714 70.6322 3.61124 70.6322 4.98785V39.0773C70.6322 40.4947 70.2186 41.6405 69.3914 42.5094C68.5641 43.3809 67.4855 43.8154 66.1554 43.8154C64.7036 43.8154 63.5331 43.2886 62.6463 42.2351L42.3788 16.1664V39.0746C42.3788 40.492 41.9868 41.6378 41.2001 42.5066C40.4134 43.3782 39.3537 43.8127 38.0236 43.8127C36.6935 43.8127 35.623 43.3782 34.8173 42.5066C34.009 41.6351 33.6062 40.492 33.6062 39.0746V4.98785C33.6062 3.61124 34.0198 2.48714 34.8471 1.61556C35.6743 0.743974 36.753 0.30954 38.0831 0.30954C39.5754 0.30954 40.7243 0.836291 41.5326 1.88979L61.8002 27.7766V4.98785C61.8002 3.61124 62.203 2.48714 63.0113 1.61556C63.8169 0.743974 64.8659 0.30954 66.1581 0.30954C67.4503 0.30954 68.5668 0.746689 69.3941 1.61556H69.3914Z" fill="#085C2F"/>
<path d="M87.0016 41.3255C83.8548 39.5443 81.4352 36.992 79.7402 33.6686C78.0451 30.3479 77.199 26.4597 77.199 22.0014C77.199 17.543 78.0451 13.6657 79.7402 10.364C81.4352 7.06227 83.8548 4.52083 87.0016 2.73694C90.1484 0.958475 93.8196 0.0651703 98.0153 0.0651703C103.298 0.0651703 107.856 1.52324 111.689 4.43938C112.295 4.9254 112.717 5.41142 112.96 5.89744C113.203 6.38347 113.322 6.99167 113.322 7.71935C113.322 8.77285 113.03 9.6743 112.446 10.4237C111.862 11.1731 111.146 11.5478 110.297 11.5478C109.732 11.5478 109.237 11.4772 108.815 11.336C108.394 11.1948 107.918 10.9396 107.393 10.5758C105.78 9.52225 104.287 8.76471 102.917 8.29769C101.546 7.83339 100.073 7.59988 98.4992 7.59988C94.6279 7.59988 91.7136 8.80544 89.7564 11.2165C87.7991 13.6277 86.8232 17.2226 86.8232 22.0041C86.8232 31.6458 90.7161 36.468 98.4992 36.468C99.9915 36.468 101.403 36.2345 102.735 35.7702C104.066 35.3059 105.62 34.5456 107.393 33.4921C107.999 33.1283 108.502 32.8758 108.905 32.7319C109.308 32.5907 109.772 32.5201 110.297 32.5201C111.143 32.5201 111.86 32.8948 112.446 33.6442C113.03 34.3936 113.322 35.295 113.322 36.3485C113.322 37.0789 113.192 37.6953 112.93 38.203C112.668 38.7108 112.254 39.1859 111.689 39.6312C107.856 42.5474 103.298 44.0082 98.0153 44.0082C93.8196 44.0082 90.1511 43.1176 87.0043 41.3337L87.0016 41.3255Z" fill="#085C2F"/>
<path d="M155.982 1.58569C156.828 2.43555 157.253 3.57051 157.253 4.98785V39.0773C157.253 40.4947 156.828 41.6405 155.982 42.5094C155.136 43.3809 154.006 43.8154 152.595 43.8154C151.183 43.8154 150.064 43.3891 149.237 42.5392C148.41 41.6894 147.996 40.5354 147.996 39.0746V25.4633H128.331V39.0746C128.331 40.492 127.907 41.6378 127.061 42.5066C126.215 43.3782 125.104 43.8127 123.733 43.8127C122.362 43.8127 121.192 43.3864 120.346 42.5365C119.499 41.6866 119.075 40.5327 119.075 39.0719V4.98785C119.075 3.57051 119.499 2.43555 120.346 1.58569C121.192 0.735828 122.322 0.30954 123.733 0.30954C125.144 0.30954 126.263 0.735828 127.091 1.58569C127.918 2.43555 128.331 3.57051 128.331 4.98785V17.9313H147.996V4.98785C147.996 3.57051 148.41 2.43555 149.237 1.58569C150.064 0.735828 151.183 0.30954 152.595 0.30954C154.006 0.30954 155.136 0.735828 155.982 1.58569Z" fill="#085C2F"/>
<path d="M166.709 42.3003C165.941 41.5319 165.56 40.4376 165.56 39.0176V5.04757C165.56 3.63023 165.944 2.536 166.709 1.76488C167.474 0.996476 168.564 0.610916 169.978 0.610916H191.397C194.381 0.610916 195.874 1.82733 195.874 4.25744C195.874 6.68756 194.381 7.96371 191.397 7.96371H174.757V17.991H190.186C193.17 17.991 194.663 19.2264 194.663 21.6972C194.663 24.1681 193.17 25.3438 190.186 25.3438H174.757V36.0987H191.397C194.381 36.0987 195.874 37.3341 195.874 39.805C195.874 42.2758 194.381 43.4515 191.397 43.4515H169.978C168.567 43.4515 167.477 43.066 166.709 42.2976V42.3003Z" fill="#085C2F"/>
<path d="M207.863 42.8759C205.119 42.1265 202.881 41.0649 201.148 39.6855C200.542 39.2402 200.11 38.7651 199.848 38.2573C199.585 37.7523 199.456 37.1142 199.456 36.3431C199.456 35.3303 199.769 34.4397 200.394 33.6686C201.018 32.9002 201.735 32.5147 202.543 32.5147C202.986 32.5147 203.419 32.5853 203.843 32.7264C204.268 32.8676 204.781 33.1229 205.387 33.4867C207.12 34.5809 208.874 35.3819 210.65 35.8869C212.424 36.3947 214.381 36.6472 216.52 36.6472C219.182 36.6472 221.218 36.2019 222.629 35.3113C224.04 34.4207 224.746 33.1446 224.746 31.4829C224.746 30.2285 224.089 29.2157 222.781 28.4446C221.47 27.6762 219.139 26.9458 215.792 26.2561C212.04 25.4877 209.047 24.5537 206.806 23.4594C204.568 22.3652 202.935 21.0076 201.905 19.3893C200.878 17.7683 200.361 15.8052 200.361 13.4946C200.361 10.9423 201.097 8.64252 202.57 6.59797C204.043 4.55341 206.079 2.95144 208.68 1.79748C211.28 0.64351 214.216 0.0651703 217.482 0.0651703C223.211 0.0651703 227.928 1.50423 231.64 4.37964C232.245 4.86566 232.678 5.36255 232.94 5.87029C233.202 6.37804 233.332 6.99439 233.332 7.72478C233.332 8.73756 233.019 9.62814 232.394 10.3993C231.77 11.1704 231.053 11.5532 230.248 11.5532C229.804 11.5532 229.391 11.4935 229.007 11.3713C228.623 11.2491 228.088 10.9857 227.404 10.5812C225.749 9.52768 224.227 8.73755 222.835 8.2108C221.443 7.68405 219.677 7.42068 217.541 7.42068C215.081 7.42068 213.146 7.89855 211.735 8.84888C210.323 9.80192 209.618 11.1079 209.618 12.7669C209.618 13.739 209.891 14.54 210.434 15.1672C210.978 15.7944 211.886 16.351 213.157 16.8397C214.427 17.3258 216.233 17.8335 218.571 18.3575C224.057 19.574 228.001 21.1325 230.399 23.0359C232.797 24.9392 234 27.554 234 30.8747C234 33.4677 233.283 35.7566 231.851 37.7414C230.418 39.7263 228.401 41.2658 225.8 42.36C223.2 43.4542 220.183 44 216.755 44C213.567 44 210.604 43.6253 207.861 42.8759H207.863Z" fill="#085C2F"/>
</svg>
